HIERARCHY
ROOT Hips
{
	OFFSET	0.00	0.00	0.00
	CHANNELS 6 Xposition Yposition Zposition Zrotation Xrotation Yrotation
	JOINT LeftUpperLeg
	{
		OFFSET	 0.100000	-0.066564	-0.000554
		CHANNELS 3 Zrotation Xrotation Yrotation
		JOINT LeftLowerLeg
		{
			OFFSET	 0.002447	-0.463436	-0.005172
			CHANNELS 3 Zrotation Xrotation Yrotation
			JOINT LeftFoot
			{
				OFFSET	-0.002447	-0.420480	-0.020576
				CHANNELS 3 Zrotation Xrotation Yrotation
				JOINT LeftToes
				{
					OFFSET	 0.003734	-0.104922	 0.126407
					CHANNELS 3 Zrotation Xrotation Yrotation
					End Site
					{
						OFFSET	 0.000000	 0.000000	 0.059955
					}
				}
			}
		}
	}
	JOINT RightUpperLeg
	{
		OFFSET	-0.100000	-0.066564	-0.000554
		CHANNELS 3 Zrotation Xrotation Yrotation
		JOINT RightLowerLeg
		{
			OFFSET	-0.002447	-0.463436	-0.005146
			CHANNELS 3 Zrotation Xrotation Yrotation
			JOINT RightFoot
			{
				OFFSET	 0.002447	-0.420479	-0.020602
				CHANNELS 3 Zrotation Xrotation Yrotation
				JOINT RightToes
				{
					OFFSET	-0.003734	-0.104922	 0.126407
					CHANNELS 3 Zrotation Xrotation Yrotation
					End Site
					{
						OFFSET	-0.000000	 0.000000	 0.059955
					}
				}
			}
		}
	}
	JOINT Spine
	{
		OFFSET	 0.000000	 0.099235	-0.012273
		CHANNELS 3 Zrotation Xrotation Yrotation
		JOINT Chest
		{
			OFFSET	-0.000001	 0.116455	-0.014223
			CHANNELS 3 Zrotation Xrotation Yrotation
			JOINT UpperChest
			{
				OFFSET	 0.000001	 0.133602	-0.016265
				CHANNELS 3 Zrotation Xrotation Yrotation
				JOINT LeftShoulder
				{
					OFFSET	 0.061058	 0.091105	 0.007056
					CHANNELS 3 Zrotation Xrotation Yrotation
					JOINT LeftUpperArm
					{
						OFFSET	 0.133942	-0.002659	-0.026009
						CHANNELS 3 Zrotation Xrotation Yrotation
						JOINT LeftLowerArm
						{
							OFFSET	 0.274047	 0.000000	 0.000000
							CHANNELS 3 Zrotation Xrotation Yrotation
							JOINT LeftHand
							{
								OFFSET	 0.276145	 0.000000	 0.000000
								CHANNELS 3 Zrotation Xrotation Yrotation
								End Site
								{
									OFFSET	 0.165687	 0.000000	 0.000000
								}
							}
						}
					}
				}
				JOINT Neck
				{
					OFFSET	 0.000000	 0.150325	 0.007929
					CHANNELS 3 Zrotation Xrotation Yrotation
					JOINT Head
					{
						OFFSET	 0.000000	 0.103218	 0.031424
						CHANNELS 3 Zrotation Xrotation Yrotation
						End Site
						{
							OFFSET	 0.000000	 0.061931	 0.018855
						}
					}
				}
				JOINT RightShoulder
				{
					OFFSET	-0.061057	 0.091105	 0.007056
					CHANNELS 3 Zrotation Xrotation Yrotation
					JOINT RightUpperArm
					{
						OFFSET	-0.133943	-0.002660	-0.026009
						CHANNELS 3 Zrotation Xrotation Yrotation
						JOINT RightLowerArm
						{
							OFFSET	-0.274047	 0.000000	 0.000000
							CHANNELS 3 Zrotation Xrotation Yrotation
							JOINT RightHand
							{
								OFFSET	-0.276145	 0.000000	 0.000000
								CHANNELS 3 Zrotation Xrotation Yrotation
								End Site
								{
									OFFSET	-0.165687	 0.000000	 0.000000
								}
							}
						}
					}
				}
			}
		}
	}
}
MOTION
Frames:    5
Frame Time: 0.03333334
-0.314260	 1.061900	-0.094280	-1.643144	 6.122364	 52.531240	 11.323450	-3.609370	 44.487790	-0.510218	 28.585000	 0.126056	 10.714650	 0.644946	-0.802575	-0.000699	-4.030439	 0.616939	-7.553347	-13.741520	-34.408280	-0.156417	 8.943412	 0.018804	-7.182771	 0.617116	-17.937140	 0.000761	 1.396041	 0.000452	 1.114536	 1.345652	-0.723738	-0.000000	 0.000000	 0.000000	 2.250200	 2.681654	-1.478780	 0.114470	-2.600128	 13.180880	-82.622380	-2.747283	-0.922591	-24.500710	 21.596590	-52.150500	 36.130140	 15.401920	-9.074123	 8.943057	 14.341090	 5.664267	 8.964254	 14.316630	 5.458590	 1.233263	 6.509422	-16.992150	 77.761090	 0.658482	 11.658530	 18.384540	 28.866730	 59.921070	-41.512540	 26.603050	 19.700480
-0.313670	 1.060350	-0.116810	-2.048694	 5.986757	 54.384380	 10.122930	-3.872914	 44.611020	-0.390109	 26.750700	 0.090299	 8.508809	 2.790981	-0.586400	-0.000528	-13.662940	 3.685621	-8.760545	-14.248380	-36.279360	-0.148573	 8.620919	 0.017439	-6.739804	 1.950117	-17.904390	-0.000348	 1.482133	 0.000502	 1.156370	 1.369030	-0.575837	-0.000000	 0.000000	 0.000000	 2.331356	 2.728099	-1.181435	-0.027460	-2.629565	 13.450920	-81.797270	-2.349643	-0.702890	-24.383580	 21.241160	-52.783090	 37.266090	 16.730080	-10.025610	 9.337159	 14.657340	 5.717579	 9.332359	 14.559850	 5.418229	 1.209259	 6.552907	-16.840600	 77.304820	 0.166723	 11.889180	 18.253730	 28.461970	 60.217490	-40.991580	 26.749480	 19.071980
-0.313100	 1.058900	-0.132930	-2.299305	 5.733124	 55.699630	 8.001735	-2.607785	 43.124480	-0.357757	 22.879950	 0.064503	 3.469445	-1.227717	 1.530715	-0.000776	-8.585496	 1.967698	-9.520983	-14.415180	-37.476390	-0.131572	 8.314304	 0.016046	-6.402254	 2.953576	-18.016090	 0.000425	 1.545496	-0.000054	 1.274023	 1.438604	-0.529276	-0.000000	 0.000000	 0.000000	 2.565831	 2.870657	-1.093736	 0.035472	-2.674791	 13.335220	-81.176080	-2.077946	-0.726198	-25.055210	 20.758050	-52.591900	 37.784980	 17.111000	-9.845218	 9.533495	 14.733430	 5.526065	 9.321151	 14.571140	 5.450151	 1.256891	 6.553316	-16.670010	 76.839190	-0.462191	 12.316610	 18.290330	 28.189300	 60.242470	-40.815270	 26.678950	 18.682500
-0.312040	 1.056370	-0.156980	-2.528126	 5.431516	 57.466690	 3.891847	-0.560484	 39.746590	-0.359179	 15.515040	 0.036986	 0.350969	-4.833805	 6.057387	-0.000203	-3.702871	 0.936992	-10.805410	-14.540610	-39.438160	-0.105826	 7.835534	 0.012376	-5.878310	 4.404023	-17.881280	-0.000358	 1.654284	 0.000003	 1.331311	 1.501823	-0.474958	-0.000000	 0.000000	 0.000000	 2.680991	 2.997978	-0.987032	-0.142659	-2.956318	 13.410820	-80.903990	-1.814323	-0.396289	-25.356620	 20.271820	-52.022540	 38.331040	 17.750710	-9.680009	 9.620384	 14.746190	 5.439940	 9.530743	 14.599180	 5.349223	 1.625979	 6.483271	-16.661550	 76.732330	-1.243255	 12.604330	 17.213180	 28.175230	 60.809630	-41.079020	 27.267510	 18.443440
-0.311080	 1.054120	-0.176510	-2.602477	 5.486333	 58.786090	 0.907836	 0.397945	 38.494300	-0.091969	 11.071520	 0.001354	 1.335135	-6.761973	 7.765908	 0.000370	 0.141139	 0.481503	-12.360840	-14.901240	-41.498480	-0.127291	 8.029933	 0.014601	-5.664830	 5.215884	-17.283110	-0.000572	 1.821595	-0.000046	 1.267372	 1.511220	-0.484287	-0.000000	 0.000000	 0.000000	 2.552643	 3.015793	-1.004697	-0.405023	-3.313279	 13.429150	-80.816100	-1.599083	-0.153473	-25.106430	 20.259120	-51.298250	 39.160600	 18.020790	-10.110830	 9.512108	 14.685750	 5.336988	 9.632857	 14.674460	 5.363225	 1.708023	 6.407684	-16.623540	 76.365810	-1.733156	 13.157070	 17.481470	 27.109230	 60.473460	-41.517380	 28.505050	 19.242640
